<!DOCTYPE svg PUBLIC "-//W3C//DTD SVG 1.1//EN" "http://www.w3.org/Graphics/SVG/1.1/DTD/svg11.dtd">
<!-- Uploaded to: SVG Repo, www.svgrepo.com, Transformed by: SVG Repo Mixer Tools -->
<svg version="1.1" id="Layer_1" xmlns="http://www.w3.org/2000/svg" xmlns:xlink="http://www.w3.org/1999/xlink" viewBox="0 0 512.001 512.001" xml:space="preserve" width="800px" height="800px" fill="#000000">
<g id="SVGRepo_bgCarrier" stroke-width="0"/>
<g id="SVGRepo_tracerCarrier" stroke-linecap="round" stroke-linejoin="round"/>
<g id="SVGRepo_iconCarrier"> <g> <path style="fill:#cfcfcf;" d="M83.087,472.064H38.919v-69.908v-1.918v-28.894V16.285c0-4.685,3.798-8.483,8.483-8.483h27.201 c4.685,0,8.483,3.798,8.483,8.483V472.064z"/> <path style="fill:#cfcfcf;" d="M473.081,472.064h-44.167V16.285c0-4.685,3.798-8.483,8.483-8.483h27.202 c4.685,0,8.483,3.798,8.483,8.483v455.779H473.081z"/> </g> <g> <rect x="428.915" y="332.245" style="fill:#cfcfcf;" width="44.167" height="31.377"/> <rect x="38.922" y="332.245" style="fill:#cfcfcf;" width="44.167" height="31.377"/> </g> <path style="fill:#cfcfcf;" d="M74.604,7.802H47.92c4.685,0,8.483,3.798,8.483,8.483v455.779h26.684V16.285 C83.087,11.601,79.289,7.802,74.604,7.802z"/> <rect x="56.403" y="332.245" style="fill:#cfcfcf;" width="26.684" height="31.377"/> <path style="fill:#C7C5CB;" d="M103.407,472.064H18.6c-3.818,0-6.913,3.096-6.913,6.913v18.308c0,3.818,3.096,6.913,6.913,6.913 h84.807c3.818,0,6.913-3.096,6.913-6.913v-18.308C110.32,475.16,107.224,472.064,103.407,472.064z"/> <path style="fill:#AEADB3;" d="M83.087,472.064v32.135h20.32c3.818,0,6.913-3.096,6.913-6.913v-18.308 c0-3.818-3.096-6.913-6.913-6.913L83.087,472.064L83.087,472.064z"/> <path style="fill:#cfcfcf;" d="M464.597,7.802h-27.202c-0.006,0-0.011,0.001-0.016,0.001c4.678,0.009,8.467,3.802,8.467,8.482 v455.779h27.233V16.285C473.081,11.601,469.283,7.802,464.597,7.802z"/> <rect x="445.846" y="332.245" style="fill:#cfcfcf;" width="27.233" height="31.377"/> <path style="fill:#C7C5CB;" d="M493.4,472.064h-84.808c-3.818,0-6.913,3.096-6.913,6.913v18.308c0,3.818,3.096,6.913,6.913,6.913 H493.4c3.818,0,6.913-3.096,6.913-6.913v-18.308C500.314,475.16,497.219,472.064,493.4,472.064z"/> <path style="fill:#FEA921;" d="M500.19,332.247H11.81C5.287,332.247,0,326.96,0,320.438V60.34c0-6.522,5.287-11.81,11.81-11.81 H500.19c6.522,0,11.81,5.287,11.81,11.81v260.099C512,326.96,506.712,332.247,500.19,332.247z"/> <g> <polygon style="fill:#F2F2F2;" points="276.728,48.53 215.089,48.53 116.989,332.247 178.628,332.247 "/> <path style="fill:#F2F2F2;" d="M0,91.229L14.763,48.53h-2.955C5.287,48.53,0,53.818,0,60.34V91.229z"/> <path style="fill:#F2F2F2;" d="M84.107,48.53L0,291.778v28.66c0,6.522,5.287,11.81,11.81,11.81h35.837L145.746,48.53H84.107z"/> <polygon style="fill:#F2F2F2;" points="407.709,48.53 346.07,48.53 247.97,332.247 309.609,332.247 "/> <path style="fill:#F2F2F2;" d="M512,125.726V60.34c0-6.522-5.287-11.81-11.81-11.81h-23.138l-98.1,283.717h61.639L512,125.726z"/> </g> <path style="fill:#AEADB3;" d="M473.081,472.064v32.135h20.32c3.818,0,6.913-3.096,6.913-6.913v-18.308 c0-3.818-3.096-6.913-6.913-6.913L473.081,472.064L473.081,472.064z"/> <path style="fill:#E58200;" d="M500.19,48.53h-30.71c6.522,0,11.81,5.287,11.81,11.81v220.619c0,11.365-9.213,20.578-20.578,20.578 H0v18.901c0,6.522,5.287,11.81,11.81,11.81h457.672h30.71c4.484,0,8.385-2.499,10.384-6.18c0.364-0.669,0.665-1.378,0.894-2.117 c0.115-0.369,0.212-0.748,0.291-1.132c0.158-0.769,0.24-1.564,0.24-2.38l0,0v-18.901V60.34C512,53.818,506.712,48.53,500.19,48.53z"/> <g> <path style="fill:#CCCCCC;" d="M512,60.34c0-4.484-2.499-8.385-6.18-10.384C509.5,51.955,512,55.856,512,60.34v65.387l0,0V60.34z"/> <path style="fill:#CCCCCC;" d="M0,320.438v-18.901l0,0V320.438c0,6.522,5.287,11.81,11.809,11.81l0,0 C5.287,332.247,0,326.96,0,320.438z"/> <path style="fill:#CCCCCC;" d="M500.19,48.53c2.038,0,3.955,0.516,5.629,1.426C504.146,49.047,502.229,48.53,500.19,48.53h-30.71 c2.543,0,4.892,0.811,6.819,2.178l0.753-2.178H500.19z"/> <polygon style="fill:#CCCCCC;" points="127.607,301.538 116.989,332.247 178.628,332.247 189.246,301.538 "/> <path style="fill:#CCCCCC;" d="M0,301.538v18.901c0,6.522,5.287,11.81,11.81,11.81h35.837l10.618-30.71H0z"/> <polygon style="fill:#CCCCCC;" points="258.59,301.538 247.97,332.247 309.609,332.247 320.229,301.538 "/> <path style="fill:#CCCCCC;" d="M505.82,49.956c-1.673-0.909-3.59-1.426-5.629-1.426h-23.138l-0.753,2.178 c3.017,2.139,4.991,5.652,4.991,9.631v154.203l30.71-88.816V60.34C512,55.856,509.5,51.955,505.82,49.956z"/> <polygon style="fill:#CCCCCC;" points="389.571,301.538 378.953,332.247 440.592,332.247 451.21,301.538 "/> </g> </g>
</svg>