<?xml version="1.0" encoding="iso-8859-1"?>
<!-- Uploaded to: SVG Repo, www.svgrepo.com, Generator: SVG Repo Mixer Tools -->
<svg height="800px" width="800px" version="1.1" id="Layer_1" xmlns="http://www.w3.org/2000/svg" xmlns:xlink="http://www.w3.org/1999/xlink" 
	 viewBox="0 0 512 512" xml:space="preserve">
<g transform="translate(1 1)">
	<path style="fill:#FDCC00;" d="M502.467,255C502.467,118.467,391.533,7.533,255,7.533S7.533,118.467,7.533,255
		S118.467,502.467,255,502.467S502.467,391.533,502.467,255"/>
	<g>
		<path style="fill:#FFE100;" d="M255,442.733c-103.253,0-187.733-84.48-187.733-187.733S151.747,67.267,255,67.267
			S442.733,151.747,442.733,255S358.253,442.733,255,442.733"/>
		<path style="fill:#FFE100;" d="M357.4,255c0,56.32-46.08,102.4-102.4,102.4S152.6,311.32,152.6,255S198.68,152.6,255,152.6
			S357.4,198.68,357.4,255"/>
	</g>
	<path style="fill:#63D3FD;" d="M279.747,319.853c-3.413-1.707-5.973-5.973-5.973-10.24v-11.947c0.853-0.853,1.707-2.56,2.56-3.413
		c4.267-5.973,6.827-11.947,9.387-18.773c3.413-0.853,6.827-4.267,6.827-8.533V255c0-2.56-0.853-5.12-3.413-6.827v-17.92
		c0,0,3.413-26.453-34.133-26.453s-34.133,26.453-34.133,26.453v17.92c-1.707,1.707-3.413,4.267-3.413,6.827v11.947
		c0,3.413,1.707,5.973,4.267,7.68c3.413,13.653,11.093,23.04,11.093,23.04v11.093c0,4.267-2.56,7.68-5.973,10.24l-27.307,15.36
		c-1.707,0.853-3.413,2.56-5.12,3.413C211.48,349.72,231.96,357.4,254.147,357.4c22.187,0,42.667-7.68,59.733-19.627
		c-1.707-1.707-3.413-2.56-5.12-3.413L279.747,319.853z"/>
	<path style="fill:#FFA800;" d="M255,7.533c-4.267,0-8.533,0-12.8,0C372.76,14.36,476.867,122.733,476.867,255
		S372.76,495.64,242.2,502.467c4.267,0,8.533,0,12.8,0c136.533,0,247.467-110.933,247.467-247.467S391.533,7.533,255,7.533"/>
	<path style="fill:#FFFFFF;" d="M255,7.533c4.267,0,8.533,0,12.8,0C137.24,14.36,33.133,122.733,33.133,255
		S137.24,495.64,267.8,502.467c-4.267,0-8.533,0-12.8,0C118.467,502.467,7.533,391.533,7.533,255S118.467,7.533,255,7.533"/>
	<path d="M255,511C114.2,511-1,395.8-1,255S114.2-1,255-1s256,115.2,256,256S395.8,511,255,511z M255,16.067
		C123.587,16.067,16.067,123.587,16.067,255S123.587,493.933,255,493.933S493.933,386.413,493.933,255S386.413,16.067,255,16.067z"
		/>
	<path d="M255,451.267c-108.373,0-196.267-87.893-196.267-196.267S146.627,58.733,255,58.733S451.267,146.627,451.267,255
		S363.373,451.267,255,451.267z M255,75.8c-98.987,0-179.2,80.213-179.2,179.2S156.013,434.2,255,434.2S434.2,353.987,434.2,255
		S353.987,75.8,255,75.8z"/>
	<path d="M169.667,263.533h-128c-5.12,0-8.533-3.413-8.533-8.533s3.413-8.533,8.533-8.533h128c5.12,0,8.533,3.413,8.533,8.533
		S174.787,263.533,169.667,263.533z"/>
	<path d="M468.333,263.533h-128c-5.12,0-8.533-3.413-8.533-8.533s3.413-8.533,8.533-8.533h128c5.12,0,8.533,3.413,8.533,8.533
		S473.453,263.533,468.333,263.533z"/>
	<path d="M255,178.2c-5.12,0-8.533-3.413-8.533-8.533v-128c0-5.12,3.413-8.533,8.533-8.533s8.533,3.413,8.533,8.533v128
		C263.533,174.787,260.12,178.2,255,178.2z"/>
	<path d="M255,476.867c-5.12,0-8.533-3.413-8.533-8.533v-128c0-5.12,3.413-8.533,8.533-8.533s8.533,3.413,8.533,8.533v128
		C263.533,473.453,260.12,476.867,255,476.867z"/>
	<path d="M255,365.933c-61.44,0-110.933-49.493-110.933-110.933S193.56,144.067,255,144.067S365.933,193.56,365.933,255
		S316.44,365.933,255,365.933z M255,161.133c-52.053,0-93.867,41.813-93.867,93.867s41.813,93.867,93.867,93.867
		s93.867-41.813,93.867-93.867S307.053,161.133,255,161.133z"/>
	<path d="M255,365.933c-23.04,0-46.08-7.68-64.853-21.333l-8.533-5.973l7.68-6.827c2.56-1.707,4.267-3.413,6.827-5.12l27.307-15.36
		c0.853-0.853,1.707-1.707,1.707-2.56v-8.533c-2.56-3.413-7.68-11.093-10.24-21.333c-3.413-3.413-5.12-7.68-5.12-12.8V255
		c0-3.413,0.853-6.827,3.413-10.24v-14.507c0-3.413-0.853-13.653,6.827-22.187c7.68-8.533,18.773-12.8,34.987-12.8
		s28.16,4.267,34.987,12.8c7.68,9.387,7.68,19.627,7.68,22.187v14.507c1.707,2.56,3.413,6.827,3.413,10.24v11.947
		c0,5.973-3.413,11.947-8.533,15.36c-2.56,5.973-5.12,11.947-9.387,17.067c0,0.853-0.853,0.853-0.853,1.707v8.533
		c0,0.853,0.853,1.707,1.707,2.56l29.867,14.507c2.56,0.853,5.12,2.56,6.827,5.12l7.68,6.827l-8.533,5.973
		C301.08,358.253,278.04,365.933,255,365.933z M211.48,337.773c26.453,14.507,60.587,14.507,87.04,0l-22.187-11.093
		c-6.827-3.413-11.093-10.24-11.093-17.92v-14.507l2.56-2.56c0.853-0.853,1.707-1.707,2.56-2.56c3.413-5.12,5.973-10.24,7.68-16.213
		l1.707-4.267l4.267-1.707c0,0,0.853,0,0.853-0.853V255l-4.267-2.56v-4.267V229.4c0,0,0.853-5.12-3.413-9.387
		c-3.413-5.12-11.947-7.68-22.187-7.68s-17.92,2.56-22.187,6.827c-3.413,4.267-3.413,9.387-3.413,9.387v0.853v21.333l-2.56,2.56
		v12.8l2.56,1.707l0.853,4.267c2.56,11.093,9.387,19.627,9.387,19.627l1.707,2.56v14.507c0,6.827-4.267,13.653-10.24,17.067
		L211.48,337.773z"/>
</g>
</svg>